<svg width="153" height="826" viewBox="0 0 153 826" fill="none" xmlns="http://www.w3.org/2000/svg">
<g clip-path="url(#clip0_10_644)">
<path d="M-24.7028 -26L-49.8112 16.4772L-24.7028 58.9525L0.405613 16.4772L-24.7028 -26Z" fill="url(#paint0_linear_10_644)"/>
<path d="M25.5141 -26L0.40564 16.4772L25.5141 58.9525L50.6225 16.4772L25.5141 -26Z" fill="url(#paint1_linear_10_644)"/>
<path d="M75.729 -26L50.6224 16.4772L75.729 58.9525L100.837 16.4772L75.729 -26Z" fill="url(#paint2_linear_10_644)"/>
<path d="M125.946 -26L100.837 16.4772L125.946 58.9525L151.054 16.4772L125.946 -26Z" fill="url(#paint3_linear_10_644)"/>
<path d="M0.405657 16.4773L-24.7028 58.9526L0.405657 101.43L25.5141 58.9526L0.405657 16.4773Z" fill="url(#paint4_linear_10_644)"/>
<path d="M50.6225 16.4773L25.514 58.9526L50.6225 101.43L75.729 58.9526L50.6225 16.4773Z" fill="url(#paint5_linear_10_644)"/>
<path d="M100.837 16.4773L75.729 58.9526L100.837 101.43L125.946 58.9526L100.837 16.4773Z" fill="url(#paint6_linear_10_644)"/>
<path d="M-24.7028 58.9524L-49.8112 101.43L-24.7028 143.907L0.405613 101.43L-24.7028 58.9524Z" fill="url(#paint7_linear_10_644)"/>
<path d="M25.5141 58.9524L0.40564 101.43L25.5141 143.907L50.6225 101.43L25.5141 58.9524Z" fill="url(#paint8_linear_10_644)"/>
<path d="M75.729 58.9524L50.6224 101.43L75.729 143.907L100.837 101.43L75.729 58.9524Z" fill="url(#paint9_linear_10_644)"/>
<path d="M125.946 58.9524L100.837 101.43L125.946 143.907L151.054 101.43L125.946 58.9524Z" fill="url(#paint10_linear_10_644)"/>
<path d="M0.405657 101.43L-24.7028 143.907L0.405657 186.382L25.5141 143.907L0.405657 101.43Z" fill="url(#paint11_linear_10_644)"/>
<path d="M50.6225 101.43L25.514 143.907L50.6225 186.382L75.729 143.907L50.6225 101.43Z" fill="url(#paint12_linear_10_644)"/>
<path d="M100.837 101.43L75.729 143.907L100.837 186.382L125.946 143.907L100.837 101.43Z" fill="url(#paint13_linear_10_644)"/>
<path d="M-24.7028 143.907L-49.8112 186.382L-24.7028 228.859L0.405613 186.382L-24.7028 143.907Z" fill="url(#paint14_linear_10_644)"/>
<path d="M25.5141 143.907L0.40564 186.382L25.5141 228.859L50.6225 186.382L25.5141 143.907Z" fill="url(#paint15_linear_10_644)"/>
<path d="M75.729 143.907L50.6224 186.382L75.729 228.859L100.837 186.382L75.729 143.907Z" fill="url(#paint16_linear_10_644)"/>
<path d="M125.946 143.907L100.837 186.382L125.946 228.859L151.054 186.382L125.946 143.907Z" fill="url(#paint17_linear_10_644)"/>
<path d="M0.405657 186.382L-24.7028 228.859L0.405657 271.336L25.5141 228.859L0.405657 186.382Z" fill="url(#paint18_linear_10_644)"/>
<path d="M50.6225 186.382L25.514 228.859L50.6225 271.336L75.729 228.859L50.6225 186.382Z" fill="url(#paint19_linear_10_644)"/>
<path d="M100.837 186.382L75.729 228.859L100.837 271.336L125.946 228.859L100.837 186.382Z" fill="url(#paint20_linear_10_644)"/>
<path d="M-24.7028 228.859L-49.8112 271.336L-24.7028 313.812L0.405613 271.336L-24.7028 228.859Z" fill="url(#paint21_linear_10_644)"/>
<path d="M25.5141 228.859L0.40564 271.336L25.5141 313.812L50.6225 271.336L25.5141 228.859Z" fill="url(#paint22_linear_10_644)"/>
<path d="M75.729 228.859L50.6224 271.336L75.729 313.812L100.837 271.336L75.729 228.859Z" fill="url(#paint23_linear_10_644)"/>
<path d="M125.946 228.859L100.837 271.336L125.946 313.812L151.054 271.336L125.946 228.859Z" fill="url(#paint24_linear_10_644)"/>
<path d="M0.405657 271.336L-24.7028 313.812L0.405657 356.289L25.5141 313.812L0.405657 271.336Z" fill="url(#paint25_linear_10_644)"/>
<path d="M50.6225 271.336L25.514 313.812L50.6225 356.289L75.729 313.812L50.6225 271.336Z" fill="url(#paint26_linear_10_644)"/>
<path d="M100.837 271.336L75.729 313.812L100.837 356.289L125.946 313.812L100.837 271.336Z" fill="url(#paint27_linear_10_644)"/>
<path d="M-24.7028 313.812L-49.8112 356.289L-24.7028 398.766L0.405613 356.289L-24.7028 313.812Z" fill="url(#paint28_linear_10_644)"/>
<path d="M25.5141 313.812L0.40564 356.289L25.5141 398.766L50.6225 356.289L25.5141 313.812Z" fill="url(#paint29_linear_10_644)"/>
<path d="M75.729 313.812L50.6224 356.289L75.729 398.766L100.837 356.289L75.729 313.812Z" fill="url(#paint30_linear_10_644)"/>
<path d="M125.946 313.812L100.837 356.289L125.946 398.766L151.054 356.289L125.946 313.812Z" fill="url(#paint31_linear_10_644)"/>
<path d="M0.405657 356.289L-24.7028 398.766L0.405657 441.241L25.5141 398.766L0.405657 356.289Z" fill="url(#paint32_linear_10_644)"/>
<path d="M50.6225 356.289L25.514 398.766L50.6225 441.241L75.729 398.766L50.6225 356.289Z" fill="url(#paint33_linear_10_644)"/>
<path d="M100.837 356.289L75.729 398.766L100.837 441.241L125.946 398.766L100.837 356.289Z" fill="url(#paint34_linear_10_644)"/>
<path d="M176.163 -26L151.054 16.4772L176.163 58.9525L201.271 16.4772L176.163 -26Z" fill="url(#paint35_linear_10_644)"/>
<path d="M151.054 16.4773L125.946 58.9526L151.054 101.43L176.163 58.9526L151.054 16.4773Z" fill="url(#paint36_linear_10_644)"/>
<path d="M176.163 58.9524L151.054 101.43L176.163 143.907L201.271 101.43L176.163 58.9524Z" fill="url(#paint37_linear_10_644)"/>
<path d="M151.054 101.43L125.946 143.907L151.054 186.382L176.163 143.907L151.054 101.43Z" fill="url(#paint38_linear_10_644)"/>
<path d="M176.163 143.907L151.054 186.382L176.163 228.859L201.271 186.382L176.163 143.907Z" fill="url(#paint39_linear_10_644)"/>
<path d="M151.054 186.382L125.946 228.859L151.054 271.336L176.163 228.859L151.054 186.382Z" fill="url(#paint40_linear_10_644)"/>
<path d="M176.163 228.859L151.054 271.336L176.163 313.812L201.271 271.336L176.163 228.859Z" fill="url(#paint41_linear_10_644)"/>
<path d="M151.054 271.336L125.946 313.812L151.054 356.289L176.163 313.812L151.054 271.336Z" fill="url(#paint42_linear_10_644)"/>
<path d="M176.163 313.812L151.054 356.289L176.163 398.766L201.271 356.289L176.163 313.812Z" fill="url(#paint43_linear_10_644)"/>
<path d="M151.054 356.289L125.946 398.766L151.054 441.241L176.163 398.766L151.054 356.289Z" fill="url(#paint44_linear_10_644)"/>
<path d="M-24.7028 398.759L-49.8112 441.236L-24.7028 483.713L0.405613 441.236L-24.7028 398.759Z" fill="url(#paint45_linear_10_644)"/>
<path d="M25.5141 398.759L0.40564 441.236L25.5141 483.713L50.6225 441.236L25.5141 398.759Z" fill="url(#paint46_linear_10_644)"/>
<path d="M75.729 398.759L50.6224 441.236L75.729 483.713L100.837 441.236L75.729 398.759Z" fill="url(#paint47_linear_10_644)"/>
<path d="M125.946 398.759L100.837 441.236L125.946 483.713L151.054 441.236L125.946 398.759Z" fill="url(#paint48_linear_10_644)"/>
<path d="M0.405657 441.236L-24.7028 483.713L0.405657 526.188L25.5141 483.713L0.405657 441.236Z" fill="url(#paint49_linear_10_644)"/>
<path d="M50.6225 441.236L25.514 483.713L50.6225 526.188L75.729 483.713L50.6225 441.236Z" fill="url(#paint50_linear_10_644)"/>
<path d="M100.837 441.236L75.729 483.713L100.837 526.188L125.946 483.713L100.837 441.236Z" fill="url(#paint51_linear_10_644)"/>
<path d="M-24.7028 483.713L-49.8112 526.188L-24.7028 568.665L0.405613 526.188L-24.7028 483.713Z" fill="url(#paint52_linear_10_644)"/>
<path d="M25.5141 483.713L0.40564 526.188L25.5141 568.665L50.6225 526.188L25.5141 483.713Z" fill="url(#paint53_linear_10_644)"/>
<path d="M75.729 483.713L50.6224 526.188L75.729 568.665L100.837 526.188L75.729 483.713Z" fill="url(#paint54_linear_10_644)"/>
<path d="M125.946 483.713L100.837 526.188L125.946 568.665L151.054 526.188L125.946 483.713Z" fill="url(#paint55_linear_10_644)"/>
<path d="M0.405657 526.188L-24.7028 568.665L0.405657 611.143L25.5141 568.665L0.405657 526.188Z" fill="url(#paint56_linear_10_644)"/>
<path d="M50.6225 526.188L25.514 568.665L50.6225 611.143L75.729 568.665L50.6225 526.188Z" fill="url(#paint57_linear_10_644)"/>
<path d="M100.837 526.188L75.729 568.665L100.837 611.143L125.946 568.665L100.837 526.188Z" fill="url(#paint58_linear_10_644)"/>
<path d="M-24.7028 568.665L-49.8112 611.143L-24.7028 653.618L0.405613 611.143L-24.7028 568.665Z" fill="url(#paint59_linear_10_644)"/>
<path d="M25.5141 568.665L0.40564 611.143L25.5141 653.618L50.6225 611.143L25.5141 568.665Z" fill="url(#paint60_linear_10_644)"/>
<path d="M75.729 568.665L50.6224 611.143L75.729 653.618L100.837 611.143L75.729 568.665Z" fill="url(#paint61_linear_10_644)"/>
<path d="M125.946 568.665L100.837 611.143L125.946 653.618L151.054 611.143L125.946 568.665Z" fill="url(#paint62_linear_10_644)"/>
<path d="M0.405657 611.143L-24.7028 653.618L0.405657 696.095L25.5141 653.618L0.405657 611.143Z" fill="url(#paint63_linear_10_644)"/>
<path d="M50.6225 611.143L25.514 653.618L50.6225 696.095L75.729 653.618L50.6225 611.143Z" fill="url(#paint64_linear_10_644)"/>
<path d="M100.837 611.143L75.729 653.618L100.837 696.095L125.946 653.618L100.837 611.143Z" fill="url(#paint65_linear_10_644)"/>
<path d="M-24.7028 653.618L-49.8112 696.095L-24.7028 738.57L0.405613 696.095L-24.7028 653.618Z" fill="url(#paint66_linear_10_644)"/>
<path d="M25.5141 653.618L0.40564 696.095L25.5141 738.57L50.6225 696.095L25.5141 653.618Z" fill="url(#paint67_linear_10_644)"/>
<path d="M75.729 653.618L50.6224 696.095L75.729 738.57L100.837 696.095L75.729 653.618Z" fill="url(#paint68_linear_10_644)"/>
<path d="M125.946 653.618L100.837 696.095L125.946 738.57L151.054 696.095L125.946 653.618Z" fill="url(#paint69_linear_10_644)"/>
<path d="M0.405657 696.095L-24.7028 738.572L0.405657 781.047L25.5141 738.572L0.405657 696.095Z" fill="url(#paint70_linear_10_644)"/>
<path d="M50.6225 696.095L25.514 738.572L50.6225 781.047L75.729 738.572L50.6225 696.095Z" fill="url(#paint71_linear_10_644)"/>
<path d="M100.837 696.095L75.729 738.572L100.837 781.047L125.946 738.572L100.837 696.095Z" fill="url(#paint72_linear_10_644)"/>
<path d="M-24.7028 738.57L-49.8112 781.047L-24.7028 823.525L0.405613 781.047L-24.7028 738.57Z" fill="url(#paint73_linear_10_644)"/>
<path d="M25.5141 738.57L0.40564 781.047L25.5141 823.525L50.6225 781.047L25.5141 738.57Z" fill="url(#paint74_linear_10_644)"/>
<path d="M75.729 738.57L50.6224 781.047L75.729 823.525L100.837 781.047L75.729 738.57Z" fill="url(#paint75_linear_10_644)"/>
<path d="M125.946 738.57L100.837 781.047L125.946 823.525L151.054 781.047L125.946 738.57Z" fill="url(#paint76_linear_10_644)"/>
<path d="M0.405657 781.047L-24.7028 823.525L0.405657 866L25.5141 823.525L0.405657 781.047Z" fill="url(#paint77_linear_10_644)"/>
<path d="M50.6225 781.047L25.514 823.525L50.6225 866L75.729 823.525L50.6225 781.047Z" fill="url(#paint78_linear_10_644)"/>
<path d="M100.837 781.047L75.729 823.525L100.837 866L125.946 823.525L100.837 781.047Z" fill="url(#paint79_linear_10_644)"/>
<path d="M176.163 398.759L151.054 441.236L176.163 483.713L201.271 441.236L176.163 398.759Z" fill="url(#paint80_linear_10_644)"/>
<path d="M151.054 441.236L125.946 483.713L151.054 526.188L176.163 483.713L151.054 441.236Z" fill="url(#paint81_linear_10_644)"/>
<path d="M176.163 483.713L151.054 526.188L176.163 568.665L201.271 526.188L176.163 483.713Z" fill="url(#paint82_linear_10_644)"/>
<path d="M151.054 526.188L125.946 568.665L151.054 611.143L176.163 568.665L151.054 526.188Z" fill="url(#paint83_linear_10_644)"/>
<path d="M176.163 568.665L151.054 611.143L176.163 653.618L201.271 611.143L176.163 568.665Z" fill="url(#paint84_linear_10_644)"/>
<path d="M151.054 611.143L125.946 653.618L151.054 696.095L176.163 653.618L151.054 611.143Z" fill="url(#paint85_linear_10_644)"/>
<path d="M176.163 653.618L151.054 696.095L176.163 738.57L201.271 696.095L176.163 653.618Z" fill="url(#paint86_linear_10_644)"/>
<path d="M151.054 696.095L125.946 738.572L151.054 781.047L176.163 738.572L151.054 696.095Z" fill="url(#paint87_linear_10_644)"/>
<path d="M176.163 738.57L151.054 781.047L176.163 823.525L201.271 781.047L176.163 738.57Z" fill="url(#paint88_linear_10_644)"/>
<path d="M151.054 781.047L125.946 823.525L151.054 866L176.163 823.525L151.054 781.047Z" fill="url(#paint89_linear_10_644)"/>
</g>
<defs>
<linearGradient id="paint0_linear_10_644" x1="-49.8112" y1="441.241" x2="0.405613" y2="441.241" gradientUnits="userSpaceOnUse">
<stop stop-color="#26252B"/>
<stop offset="0.22" stop-color="#1D1C20"/>
<stop offset="0.64" stop-color="#111112"/>
<stop offset="1" stop-color="#0D0D0D"/>
</linearGradient>
<linearGradient id="paint1_linear_10_644" x1="0.40564" y1="441.241" x2="50.6225" y2="441.241" gradientUnits="userSpaceOnUse">
<stop stop-color="#26252B"/>
<stop offset="0.22" stop-color="#1D1C20"/>
<stop offset="0.64" stop-color="#111112"/>
<stop offset="1" stop-color="#0D0D0D"/>
</linearGradient>
<linearGradient id="paint2_linear_10_644" x1="50.6224" y1="441.241" x2="100.837" y2="441.241" gradientUnits="userSpaceOnUse">
<stop stop-color="#26252B"/>
<stop offset="0.22" stop-color="#1D1C20"/>
<stop offset="0.64" stop-color="#111112"/>
<stop offset="1" stop-color="#0D0D0D"/>
</linearGradient>
<linearGradient id="paint3_linear_10_644" x1="100.837" y1="441.241" x2="151.054" y2="441.241" gradientUnits="userSpaceOnUse">
<stop stop-color="#26252B"/>
<stop offset="0.22" stop-color="#1D1C20"/>
<stop offset="0.64" stop-color="#111112"/>
<stop offset="1" stop-color="#0D0D0D"/>
</linearGradient>
<linearGradient id="paint4_linear_10_644" x1="-24.7028" y1="58.9526" x2="25.5141" y2="58.9526" gradientUnits="userSpaceOnUse">
<stop stop-color="#26252B"/>
<stop offset="0.22" stop-color="#1D1C20"/>
<stop offset="0.64" stop-color="#111112"/>
<stop offset="1" stop-color="#0D0D0D"/>
</linearGradient>
<linearGradient id="paint5_linear_10_644" x1="25.514" y1="58.9526" x2="75.729" y2="58.9526" gradientUnits="userSpaceOnUse">
<stop stop-color="#26252B"/>
<stop offset="0.22" stop-color="#1D1C20"/>
<stop offset="0.64" stop-color="#111112"/>
<stop offset="1" stop-color="#0D0D0D"/>
</linearGradient>
<linearGradient id="paint6_linear_10_644" x1="75.729" y1="58.9526" x2="125.946" y2="58.9526" gradientUnits="userSpaceOnUse">
<stop stop-color="#26252B"/>
<stop offset="0.22" stop-color="#1D1C20"/>
<stop offset="0.64" stop-color="#111112"/>
<stop offset="1" stop-color="#0D0D0D"/>
</linearGradient>
<linearGradient id="paint7_linear_10_644" x1="-49.8112" y1="101.43" x2="0.405613" y2="101.43" gradientUnits="userSpaceOnUse">
<stop stop-color="#26252B"/>
<stop offset="0.22" stop-color="#1D1C20"/>
<stop offset="0.64" stop-color="#111112"/>
<stop offset="1" stop-color="#0D0D0D"/>
</linearGradient>
<linearGradient id="paint8_linear_10_644" x1="0.40564" y1="101.43" x2="50.6225" y2="101.43" gradientUnits="userSpaceOnUse">
<stop stop-color="#26252B"/>
<stop offset="0.22" stop-color="#1D1C20"/>
<stop offset="0.64" stop-color="#111112"/>
<stop offset="1" stop-color="#0D0D0D"/>
</linearGradient>
<linearGradient id="paint9_linear_10_644" x1="50.6224" y1="101.43" x2="100.837" y2="101.43" gradientUnits="userSpaceOnUse">
<stop stop-color="#26252B"/>
<stop offset="0.22" stop-color="#1D1C20"/>
<stop offset="0.64" stop-color="#111112"/>
<stop offset="1" stop-color="#0D0D0D"/>
</linearGradient>
<linearGradient id="paint10_linear_10_644" x1="100.837" y1="101.43" x2="151.054" y2="101.43" gradientUnits="userSpaceOnUse">
<stop stop-color="#26252B"/>
<stop offset="0.22" stop-color="#1D1C20"/>
<stop offset="0.64" stop-color="#111112"/>
<stop offset="1" stop-color="#0D0D0D"/>
</linearGradient>
<linearGradient id="paint11_linear_10_644" x1="-24.7028" y1="143.905" x2="25.5141" y2="143.905" gradientUnits="userSpaceOnUse">
<stop stop-color="#26252B"/>
<stop offset="0.22" stop-color="#1D1C20"/>
<stop offset="0.64" stop-color="#111112"/>
<stop offset="1" stop-color="#0D0D0D"/>
</linearGradient>
<linearGradient id="paint12_linear_10_644" x1="25.514" y1="143.905" x2="75.729" y2="143.905" gradientUnits="userSpaceOnUse">
<stop stop-color="#26252B"/>
<stop offset="0.22" stop-color="#1D1C20"/>
<stop offset="0.64" stop-color="#111112"/>
<stop offset="1" stop-color="#0D0D0D"/>
</linearGradient>
<linearGradient id="paint13_linear_10_644" x1="75.729" y1="143.905" x2="125.946" y2="143.905" gradientUnits="userSpaceOnUse">
<stop stop-color="#26252B"/>
<stop offset="0.22" stop-color="#1D1C20"/>
<stop offset="0.64" stop-color="#111112"/>
<stop offset="1" stop-color="#0D0D0D"/>
</linearGradient>
<linearGradient id="paint14_linear_10_644" x1="-49.8112" y1="186.382" x2="0.405613" y2="186.382" gradientUnits="userSpaceOnUse">
<stop stop-color="#26252B"/>
<stop offset="0.22" stop-color="#1D1C20"/>
<stop offset="0.64" stop-color="#111112"/>
<stop offset="1" stop-color="#0D0D0D"/>
</linearGradient>
<linearGradient id="paint15_linear_10_644" x1="0.40564" y1="186.382" x2="50.6225" y2="186.382" gradientUnits="userSpaceOnUse">
<stop stop-color="#26252B"/>
<stop offset="0.22" stop-color="#1D1C20"/>
<stop offset="0.64" stop-color="#111112"/>
<stop offset="1" stop-color="#0D0D0D"/>
</linearGradient>
<linearGradient id="paint16_linear_10_644" x1="50.6224" y1="186.382" x2="100.837" y2="186.382" gradientUnits="userSpaceOnUse">
<stop stop-color="#26252B"/>
<stop offset="0.22" stop-color="#1D1C20"/>
<stop offset="0.64" stop-color="#111112"/>
<stop offset="1" stop-color="#0D0D0D"/>
</linearGradient>
<linearGradient id="paint17_linear_10_644" x1="100.837" y1="186.382" x2="151.054" y2="186.382" gradientUnits="userSpaceOnUse">
<stop stop-color="#26252B"/>
<stop offset="0.22" stop-color="#1D1C20"/>
<stop offset="0.64" stop-color="#111112"/>
<stop offset="1" stop-color="#0D0D0D"/>
</linearGradient>
<linearGradient id="paint18_linear_10_644" x1="-24.7028" y1="228.859" x2="25.5141" y2="228.859" gradientUnits="userSpaceOnUse">
<stop stop-color="#26252B"/>
<stop offset="0.22" stop-color="#1D1C20"/>
<stop offset="0.64" stop-color="#111112"/>
<stop offset="1" stop-color="#0D0D0D"/>
</linearGradient>
<linearGradient id="paint19_linear_10_644" x1="25.514" y1="228.859" x2="75.729" y2="228.859" gradientUnits="userSpaceOnUse">
<stop stop-color="#26252B"/>
<stop offset="0.22" stop-color="#1D1C20"/>
<stop offset="0.64" stop-color="#111112"/>
<stop offset="1" stop-color="#0D0D0D"/>
</linearGradient>
<linearGradient id="paint20_linear_10_644" x1="75.729" y1="228.859" x2="125.946" y2="228.859" gradientUnits="userSpaceOnUse">
<stop stop-color="#26252B"/>
<stop offset="0.22" stop-color="#1D1C20"/>
<stop offset="0.64" stop-color="#111112"/>
<stop offset="1" stop-color="#0D0D0D"/>
</linearGradient>
<linearGradient id="paint21_linear_10_644" x1="-49.8112" y1="271.335" x2="0.405613" y2="271.335" gradientUnits="userSpaceOnUse">
<stop stop-color="#26252B"/>
<stop offset="0.22" stop-color="#1D1C20"/>
<stop offset="0.64" stop-color="#111112"/>
<stop offset="1" stop-color="#0D0D0D"/>
</linearGradient>
<linearGradient id="paint22_linear_10_644" x1="0.40564" y1="271.335" x2="50.6225" y2="271.335" gradientUnits="userSpaceOnUse">
<stop stop-color="#26252B"/>
<stop offset="0.22" stop-color="#1D1C20"/>
<stop offset="0.64" stop-color="#111112"/>
<stop offset="1" stop-color="#0D0D0D"/>
</linearGradient>
<linearGradient id="paint23_linear_10_644" x1="50.6224" y1="271.335" x2="100.837" y2="271.335" gradientUnits="userSpaceOnUse">
<stop stop-color="#26252B"/>
<stop offset="0.22" stop-color="#1D1C20"/>
<stop offset="0.64" stop-color="#111112"/>
<stop offset="1" stop-color="#0D0D0D"/>
</linearGradient>
<linearGradient id="paint24_linear_10_644" x1="100.837" y1="271.335" x2="151.054" y2="271.335" gradientUnits="userSpaceOnUse">
<stop stop-color="#26252B"/>
<stop offset="0.22" stop-color="#1D1C20"/>
<stop offset="0.64" stop-color="#111112"/>
<stop offset="1" stop-color="#0D0D0D"/>
</linearGradient>
<linearGradient id="paint25_linear_10_644" x1="-24.7028" y1="313.812" x2="25.5141" y2="313.812" gradientUnits="userSpaceOnUse">
<stop stop-color="#26252B"/>
<stop offset="0.22" stop-color="#1D1C20"/>
<stop offset="0.64" stop-color="#111112"/>
<stop offset="1" stop-color="#0D0D0D"/>
</linearGradient>
<linearGradient id="paint26_linear_10_644" x1="25.514" y1="313.812" x2="75.729" y2="313.812" gradientUnits="userSpaceOnUse">
<stop stop-color="#26252B"/>
<stop offset="0.22" stop-color="#1D1C20"/>
<stop offset="0.64" stop-color="#111112"/>
<stop offset="1" stop-color="#0D0D0D"/>
</linearGradient>
<linearGradient id="paint27_linear_10_644" x1="75.729" y1="313.812" x2="125.946" y2="313.812" gradientUnits="userSpaceOnUse">
<stop stop-color="#26252B"/>
<stop offset="0.22" stop-color="#1D1C20"/>
<stop offset="0.64" stop-color="#111112"/>
<stop offset="1" stop-color="#0D0D0D"/>
</linearGradient>
<linearGradient id="paint28_linear_10_644" x1="-49.8112" y1="356.289" x2="0.405613" y2="356.289" gradientUnits="userSpaceOnUse">
<stop stop-color="#26252B"/>
<stop offset="0.22" stop-color="#1D1C20"/>
<stop offset="0.64" stop-color="#111112"/>
<stop offset="1" stop-color="#0D0D0D"/>
</linearGradient>
<linearGradient id="paint29_linear_10_644" x1="0.40564" y1="356.289" x2="50.6225" y2="356.289" gradientUnits="userSpaceOnUse">
<stop stop-color="#26252B"/>
<stop offset="0.22" stop-color="#1D1C20"/>
<stop offset="0.64" stop-color="#111112"/>
<stop offset="1" stop-color="#0D0D0D"/>
</linearGradient>
<linearGradient id="paint30_linear_10_644" x1="50.6224" y1="356.289" x2="100.837" y2="356.289" gradientUnits="userSpaceOnUse">
<stop stop-color="#26252B"/>
<stop offset="0.22" stop-color="#1D1C20"/>
<stop offset="0.64" stop-color="#111112"/>
<stop offset="1" stop-color="#0D0D0D"/>
</linearGradient>
<linearGradient id="paint31_linear_10_644" x1="100.837" y1="356.289" x2="151.054" y2="356.289" gradientUnits="userSpaceOnUse">
<stop stop-color="#26252B"/>
<stop offset="0.22" stop-color="#1D1C20"/>
<stop offset="0.64" stop-color="#111112"/>
<stop offset="1" stop-color="#0D0D0D"/>
</linearGradient>
<linearGradient id="paint32_linear_10_644" x1="-24.7028" y1="398.764" x2="25.5141" y2="398.764" gradientUnits="userSpaceOnUse">
<stop stop-color="#26252B"/>
<stop offset="0.22" stop-color="#1D1C20"/>
<stop offset="0.64" stop-color="#111112"/>
<stop offset="1" stop-color="#0D0D0D"/>
</linearGradient>
<linearGradient id="paint33_linear_10_644" x1="25.514" y1="398.764" x2="75.729" y2="398.764" gradientUnits="userSpaceOnUse">
<stop stop-color="#26252B"/>
<stop offset="0.22" stop-color="#1D1C20"/>
<stop offset="0.64" stop-color="#111112"/>
<stop offset="1" stop-color="#0D0D0D"/>
</linearGradient>
<linearGradient id="paint34_linear_10_644" x1="75.729" y1="398.764" x2="125.946" y2="398.764" gradientUnits="userSpaceOnUse">
<stop stop-color="#26252B"/>
<stop offset="0.22" stop-color="#1D1C20"/>
<stop offset="0.64" stop-color="#111112"/>
<stop offset="1" stop-color="#0D0D0D"/>
</linearGradient>
<linearGradient id="paint35_linear_10_644" x1="151.054" y1="441.241" x2="201.271" y2="441.241" gradientUnits="userSpaceOnUse">
<stop stop-color="#26252B"/>
<stop offset="0.22" stop-color="#1D1C20"/>
<stop offset="0.64" stop-color="#111112"/>
<stop offset="1" stop-color="#0D0D0D"/>
</linearGradient>
<linearGradient id="paint36_linear_10_644" x1="125.946" y1="58.9526" x2="176.163" y2="58.9526" gradientUnits="userSpaceOnUse">
<stop stop-color="#26252B"/>
<stop offset="0.22" stop-color="#1D1C20"/>
<stop offset="0.64" stop-color="#111112"/>
<stop offset="1" stop-color="#0D0D0D"/>
</linearGradient>
<linearGradient id="paint37_linear_10_644" x1="151.054" y1="101.43" x2="201.271" y2="101.43" gradientUnits="userSpaceOnUse">
<stop stop-color="#26252B"/>
<stop offset="0.22" stop-color="#1D1C20"/>
<stop offset="0.64" stop-color="#111112"/>
<stop offset="1" stop-color="#0D0D0D"/>
</linearGradient>
<linearGradient id="paint38_linear_10_644" x1="125.946" y1="143.905" x2="176.163" y2="143.905" gradientUnits="userSpaceOnUse">
<stop stop-color="#26252B"/>
<stop offset="0.22" stop-color="#1D1C20"/>
<stop offset="0.64" stop-color="#111112"/>
<stop offset="1" stop-color="#0D0D0D"/>
</linearGradient>
<linearGradient id="paint39_linear_10_644" x1="151.054" y1="186.382" x2="201.271" y2="186.382" gradientUnits="userSpaceOnUse">
<stop stop-color="#26252B"/>
<stop offset="0.22" stop-color="#1D1C20"/>
<stop offset="0.64" stop-color="#111112"/>
<stop offset="1" stop-color="#0D0D0D"/>
</linearGradient>
<linearGradient id="paint40_linear_10_644" x1="125.946" y1="228.859" x2="176.163" y2="228.859" gradientUnits="userSpaceOnUse">
<stop stop-color="#26252B"/>
<stop offset="0.22" stop-color="#1D1C20"/>
<stop offset="0.64" stop-color="#111112"/>
<stop offset="1" stop-color="#0D0D0D"/>
</linearGradient>
<linearGradient id="paint41_linear_10_644" x1="151.054" y1="271.335" x2="201.271" y2="271.335" gradientUnits="userSpaceOnUse">
<stop stop-color="#26252B"/>
<stop offset="0.22" stop-color="#1D1C20"/>
<stop offset="0.64" stop-color="#111112"/>
<stop offset="1" stop-color="#0D0D0D"/>
</linearGradient>
<linearGradient id="paint42_linear_10_644" x1="125.946" y1="313.812" x2="176.163" y2="313.812" gradientUnits="userSpaceOnUse">
<stop stop-color="#26252B"/>
<stop offset="0.22" stop-color="#1D1C20"/>
<stop offset="0.64" stop-color="#111112"/>
<stop offset="1" stop-color="#0D0D0D"/>
</linearGradient>
<linearGradient id="paint43_linear_10_644" x1="151.054" y1="356.289" x2="201.271" y2="356.289" gradientUnits="userSpaceOnUse">
<stop stop-color="#26252B"/>
<stop offset="0.22" stop-color="#1D1C20"/>
<stop offset="0.64" stop-color="#111112"/>
<stop offset="1" stop-color="#0D0D0D"/>
</linearGradient>
<linearGradient id="paint44_linear_10_644" x1="125.946" y1="398.764" x2="176.163" y2="398.764" gradientUnits="userSpaceOnUse">
<stop stop-color="#26252B"/>
<stop offset="0.22" stop-color="#1D1C20"/>
<stop offset="0.64" stop-color="#111112"/>
<stop offset="1" stop-color="#0D0D0D"/>
</linearGradient>
<linearGradient id="paint45_linear_10_644" x1="-49.8112" y1="441.236" x2="0.405613" y2="441.236" gradientUnits="userSpaceOnUse">
<stop stop-color="#26252B"/>
<stop offset="0.22" stop-color="#1D1C20"/>
<stop offset="0.64" stop-color="#111112"/>
<stop offset="1" stop-color="#0D0D0D"/>
</linearGradient>
<linearGradient id="paint46_linear_10_644" x1="0.40564" y1="441.236" x2="50.6225" y2="441.236" gradientUnits="userSpaceOnUse">
<stop stop-color="#26252B"/>
<stop offset="0.22" stop-color="#1D1C20"/>
<stop offset="0.64" stop-color="#111112"/>
<stop offset="1" stop-color="#0D0D0D"/>
</linearGradient>
<linearGradient id="paint47_linear_10_644" x1="50.6224" y1="441.236" x2="100.837" y2="441.236" gradientUnits="userSpaceOnUse">
<stop stop-color="#26252B"/>
<stop offset="0.22" stop-color="#1D1C20"/>
<stop offset="0.64" stop-color="#111112"/>
<stop offset="1" stop-color="#0D0D0D"/>
</linearGradient>
<linearGradient id="paint48_linear_10_644" x1="100.837" y1="441.236" x2="151.054" y2="441.236" gradientUnits="userSpaceOnUse">
<stop stop-color="#26252B"/>
<stop offset="0.22" stop-color="#1D1C20"/>
<stop offset="0.64" stop-color="#111112"/>
<stop offset="1" stop-color="#0D0D0D"/>
</linearGradient>
<linearGradient id="paint49_linear_10_644" x1="-24.7028" y1="483.711" x2="25.5141" y2="483.711" gradientUnits="userSpaceOnUse">
<stop stop-color="#26252B"/>
<stop offset="0.22" stop-color="#1D1C20"/>
<stop offset="0.64" stop-color="#111112"/>
<stop offset="1" stop-color="#0D0D0D"/>
</linearGradient>
<linearGradient id="paint50_linear_10_644" x1="25.514" y1="483.711" x2="75.729" y2="483.711" gradientUnits="userSpaceOnUse">
<stop stop-color="#26252B"/>
<stop offset="0.22" stop-color="#1D1C20"/>
<stop offset="0.64" stop-color="#111112"/>
<stop offset="1" stop-color="#0D0D0D"/>
</linearGradient>
<linearGradient id="paint51_linear_10_644" x1="75.729" y1="483.711" x2="125.946" y2="483.711" gradientUnits="userSpaceOnUse">
<stop stop-color="#26252B"/>
<stop offset="0.22" stop-color="#1D1C20"/>
<stop offset="0.64" stop-color="#111112"/>
<stop offset="1" stop-color="#0D0D0D"/>
</linearGradient>
<linearGradient id="paint52_linear_10_644" x1="-49.8112" y1="526.188" x2="0.405613" y2="526.188" gradientUnits="userSpaceOnUse">
<stop stop-color="#26252B"/>
<stop offset="0.22" stop-color="#1D1C20"/>
<stop offset="0.64" stop-color="#111112"/>
<stop offset="1" stop-color="#0D0D0D"/>
</linearGradient>
<linearGradient id="paint53_linear_10_644" x1="0.40564" y1="526.188" x2="50.6225" y2="526.188" gradientUnits="userSpaceOnUse">
<stop stop-color="#26252B"/>
<stop offset="0.22" stop-color="#1D1C20"/>
<stop offset="0.64" stop-color="#111112"/>
<stop offset="1" stop-color="#0D0D0D"/>
</linearGradient>
<linearGradient id="paint54_linear_10_644" x1="50.6224" y1="526.188" x2="100.837" y2="526.188" gradientUnits="userSpaceOnUse">
<stop stop-color="#26252B"/>
<stop offset="0.22" stop-color="#1D1C20"/>
<stop offset="0.64" stop-color="#111112"/>
<stop offset="1" stop-color="#0D0D0D"/>
</linearGradient>
<linearGradient id="paint55_linear_10_644" x1="100.837" y1="526.188" x2="151.054" y2="526.188" gradientUnits="userSpaceOnUse">
<stop stop-color="#26252B"/>
<stop offset="0.22" stop-color="#1D1C20"/>
<stop offset="0.64" stop-color="#111112"/>
<stop offset="1" stop-color="#0D0D0D"/>
</linearGradient>
<linearGradient id="paint56_linear_10_644" x1="-24.7028" y1="568.665" x2="25.5141" y2="568.665" gradientUnits="userSpaceOnUse">
<stop stop-color="#26252B"/>
<stop offset="0.22" stop-color="#1D1C20"/>
<stop offset="0.64" stop-color="#111112"/>
<stop offset="1" stop-color="#0D0D0D"/>
</linearGradient>
<linearGradient id="paint57_linear_10_644" x1="25.514" y1="568.665" x2="75.729" y2="568.665" gradientUnits="userSpaceOnUse">
<stop stop-color="#26252B"/>
<stop offset="0.22" stop-color="#1D1C20"/>
<stop offset="0.64" stop-color="#111112"/>
<stop offset="1" stop-color="#0D0D0D"/>
</linearGradient>
<linearGradient id="paint58_linear_10_644" x1="75.729" y1="568.665" x2="125.946" y2="568.665" gradientUnits="userSpaceOnUse">
<stop stop-color="#26252B"/>
<stop offset="0.22" stop-color="#1D1C20"/>
<stop offset="0.64" stop-color="#111112"/>
<stop offset="1" stop-color="#0D0D0D"/>
</linearGradient>
<linearGradient id="paint59_linear_10_644" x1="-49.8112" y1="611.141" x2="0.405613" y2="611.141" gradientUnits="userSpaceOnUse">
<stop stop-color="#26252B"/>
<stop offset="0.22" stop-color="#1D1C20"/>
<stop offset="0.64" stop-color="#111112"/>
<stop offset="1" stop-color="#0D0D0D"/>
</linearGradient>
<linearGradient id="paint60_linear_10_644" x1="0.40564" y1="611.141" x2="50.6225" y2="611.141" gradientUnits="userSpaceOnUse">
<stop stop-color="#26252B"/>
<stop offset="0.22" stop-color="#1D1C20"/>
<stop offset="0.64" stop-color="#111112"/>
<stop offset="1" stop-color="#0D0D0D"/>
</linearGradient>
<linearGradient id="paint61_linear_10_644" x1="50.6224" y1="611.141" x2="100.837" y2="611.141" gradientUnits="userSpaceOnUse">
<stop stop-color="#26252B"/>
<stop offset="0.22" stop-color="#1D1C20"/>
<stop offset="0.64" stop-color="#111112"/>
<stop offset="1" stop-color="#0D0D0D"/>
</linearGradient>
<linearGradient id="paint62_linear_10_644" x1="100.837" y1="611.141" x2="151.054" y2="611.141" gradientUnits="userSpaceOnUse">
<stop stop-color="#26252B"/>
<stop offset="0.22" stop-color="#1D1C20"/>
<stop offset="0.64" stop-color="#111112"/>
<stop offset="1" stop-color="#0D0D0D"/>
</linearGradient>
<linearGradient id="paint63_linear_10_644" x1="-24.7028" y1="653.618" x2="25.5141" y2="653.618" gradientUnits="userSpaceOnUse">
<stop stop-color="#26252B"/>
<stop offset="0.22" stop-color="#1D1C20"/>
<stop offset="0.64" stop-color="#111112"/>
<stop offset="1" stop-color="#0D0D0D"/>
</linearGradient>
<linearGradient id="paint64_linear_10_644" x1="25.514" y1="653.618" x2="75.729" y2="653.618" gradientUnits="userSpaceOnUse">
<stop stop-color="#26252B"/>
<stop offset="0.22" stop-color="#1D1C20"/>
<stop offset="0.64" stop-color="#111112"/>
<stop offset="1" stop-color="#0D0D0D"/>
</linearGradient>
<linearGradient id="paint65_linear_10_644" x1="75.729" y1="653.618" x2="125.946" y2="653.618" gradientUnits="userSpaceOnUse">
<stop stop-color="#26252B"/>
<stop offset="0.22" stop-color="#1D1C20"/>
<stop offset="0.64" stop-color="#111112"/>
<stop offset="1" stop-color="#0D0D0D"/>
</linearGradient>
<linearGradient id="paint66_linear_10_644" x1="-49.8112" y1="696.095" x2="0.405613" y2="696.095" gradientUnits="userSpaceOnUse">
<stop stop-color="#26252B"/>
<stop offset="0.22" stop-color="#1D1C20"/>
<stop offset="0.64" stop-color="#111112"/>
<stop offset="1" stop-color="#0D0D0D"/>
</linearGradient>
<linearGradient id="paint67_linear_10_644" x1="0.40564" y1="696.095" x2="50.6225" y2="696.095" gradientUnits="userSpaceOnUse">
<stop stop-color="#26252B"/>
<stop offset="0.22" stop-color="#1D1C20"/>
<stop offset="0.64" stop-color="#111112"/>
<stop offset="1" stop-color="#0D0D0D"/>
</linearGradient>
<linearGradient id="paint68_linear_10_644" x1="50.6224" y1="696.095" x2="100.837" y2="696.095" gradientUnits="userSpaceOnUse">
<stop stop-color="#26252B"/>
<stop offset="0.22" stop-color="#1D1C20"/>
<stop offset="0.64" stop-color="#111112"/>
<stop offset="1" stop-color="#0D0D0D"/>
</linearGradient>
<linearGradient id="paint69_linear_10_644" x1="100.837" y1="696.095" x2="151.054" y2="696.095" gradientUnits="userSpaceOnUse">
<stop stop-color="#26252B"/>
<stop offset="0.22" stop-color="#1D1C20"/>
<stop offset="0.64" stop-color="#111112"/>
<stop offset="1" stop-color="#0D0D0D"/>
</linearGradient>
<linearGradient id="paint70_linear_10_644" x1="-24.7028" y1="738.57" x2="25.5141" y2="738.57" gradientUnits="userSpaceOnUse">
<stop stop-color="#26252B"/>
<stop offset="0.22" stop-color="#1D1C20"/>
<stop offset="0.64" stop-color="#111112"/>
<stop offset="1" stop-color="#0D0D0D"/>
</linearGradient>
<linearGradient id="paint71_linear_10_644" x1="25.514" y1="738.57" x2="75.729" y2="738.57" gradientUnits="userSpaceOnUse">
<stop stop-color="#26252B"/>
<stop offset="0.22" stop-color="#1D1C20"/>
<stop offset="0.64" stop-color="#111112"/>
<stop offset="1" stop-color="#0D0D0D"/>
</linearGradient>
<linearGradient id="paint72_linear_10_644" x1="75.729" y1="738.57" x2="125.946" y2="738.57" gradientUnits="userSpaceOnUse">
<stop stop-color="#26252B"/>
<stop offset="0.22" stop-color="#1D1C20"/>
<stop offset="0.64" stop-color="#111112"/>
<stop offset="1" stop-color="#0D0D0D"/>
</linearGradient>
<linearGradient id="paint73_linear_10_644" x1="-49.8112" y1="781.047" x2="0.405613" y2="781.047" gradientUnits="userSpaceOnUse">
<stop stop-color="#26252B"/>
<stop offset="0.22" stop-color="#1D1C20"/>
<stop offset="0.64" stop-color="#111112"/>
<stop offset="1" stop-color="#0D0D0D"/>
</linearGradient>
<linearGradient id="paint74_linear_10_644" x1="0.40564" y1="781.047" x2="50.6225" y2="781.047" gradientUnits="userSpaceOnUse">
<stop stop-color="#26252B"/>
<stop offset="0.22" stop-color="#1D1C20"/>
<stop offset="0.64" stop-color="#111112"/>
<stop offset="1" stop-color="#0D0D0D"/>
</linearGradient>
<linearGradient id="paint75_linear_10_644" x1="50.6224" y1="781.047" x2="100.837" y2="781.047" gradientUnits="userSpaceOnUse">
<stop stop-color="#26252B"/>
<stop offset="0.22" stop-color="#1D1C20"/>
<stop offset="0.64" stop-color="#111112"/>
<stop offset="1" stop-color="#0D0D0D"/>
</linearGradient>
<linearGradient id="paint76_linear_10_644" x1="100.837" y1="781.047" x2="151.054" y2="781.047" gradientUnits="userSpaceOnUse">
<stop stop-color="#26252B"/>
<stop offset="0.22" stop-color="#1D1C20"/>
<stop offset="0.64" stop-color="#111112"/>
<stop offset="1" stop-color="#0D0D0D"/>
</linearGradient>
<linearGradient id="paint77_linear_10_644" x1="-24.7028" y1="823.525" x2="25.5141" y2="823.525" gradientUnits="userSpaceOnUse">
<stop stop-color="#26252B"/>
<stop offset="0.22" stop-color="#1D1C20"/>
<stop offset="0.64" stop-color="#111112"/>
<stop offset="1" stop-color="#0D0D0D"/>
</linearGradient>
<linearGradient id="paint78_linear_10_644" x1="25.514" y1="823.525" x2="75.729" y2="823.525" gradientUnits="userSpaceOnUse">
<stop stop-color="#26252B"/>
<stop offset="0.22" stop-color="#1D1C20"/>
<stop offset="0.64" stop-color="#111112"/>
<stop offset="1" stop-color="#0D0D0D"/>
</linearGradient>
<linearGradient id="paint79_linear_10_644" x1="75.729" y1="823.525" x2="125.946" y2="823.525" gradientUnits="userSpaceOnUse">
<stop stop-color="#26252B"/>
<stop offset="0.22" stop-color="#1D1C20"/>
<stop offset="0.64" stop-color="#111112"/>
<stop offset="1" stop-color="#0D0D0D"/>
</linearGradient>
<linearGradient id="paint80_linear_10_644" x1="151.054" y1="441.236" x2="201.271" y2="441.236" gradientUnits="userSpaceOnUse">
<stop stop-color="#26252B"/>
<stop offset="0.22" stop-color="#1D1C20"/>
<stop offset="0.64" stop-color="#111112"/>
<stop offset="1" stop-color="#0D0D0D"/>
</linearGradient>
<linearGradient id="paint81_linear_10_644" x1="125.946" y1="483.711" x2="176.163" y2="483.711" gradientUnits="userSpaceOnUse">
<stop stop-color="#26252B"/>
<stop offset="0.22" stop-color="#1D1C20"/>
<stop offset="0.64" stop-color="#111112"/>
<stop offset="1" stop-color="#0D0D0D"/>
</linearGradient>
<linearGradient id="paint82_linear_10_644" x1="151.054" y1="526.188" x2="201.271" y2="526.188" gradientUnits="userSpaceOnUse">
<stop stop-color="#26252B"/>
<stop offset="0.22" stop-color="#1D1C20"/>
<stop offset="0.64" stop-color="#111112"/>
<stop offset="1" stop-color="#0D0D0D"/>
</linearGradient>
<linearGradient id="paint83_linear_10_644" x1="125.946" y1="568.665" x2="176.163" y2="568.665" gradientUnits="userSpaceOnUse">
<stop stop-color="#26252B"/>
<stop offset="0.22" stop-color="#1D1C20"/>
<stop offset="0.64" stop-color="#111112"/>
<stop offset="1" stop-color="#0D0D0D"/>
</linearGradient>
<linearGradient id="paint84_linear_10_644" x1="151.054" y1="611.141" x2="201.271" y2="611.141" gradientUnits="userSpaceOnUse">
<stop stop-color="#26252B"/>
<stop offset="0.22" stop-color="#1D1C20"/>
<stop offset="0.64" stop-color="#111112"/>
<stop offset="1" stop-color="#0D0D0D"/>
</linearGradient>
<linearGradient id="paint85_linear_10_644" x1="125.946" y1="653.618" x2="176.163" y2="653.618" gradientUnits="userSpaceOnUse">
<stop stop-color="#26252B"/>
<stop offset="0.22" stop-color="#1D1C20"/>
<stop offset="0.64" stop-color="#111112"/>
<stop offset="1" stop-color="#0D0D0D"/>
</linearGradient>
<linearGradient id="paint86_linear_10_644" x1="151.054" y1="696.095" x2="201.271" y2="696.095" gradientUnits="userSpaceOnUse">
<stop stop-color="#26252B"/>
<stop offset="0.22" stop-color="#1D1C20"/>
<stop offset="0.64" stop-color="#111112"/>
<stop offset="1" stop-color="#0D0D0D"/>
</linearGradient>
<linearGradient id="paint87_linear_10_644" x1="125.946" y1="738.57" x2="176.163" y2="738.57" gradientUnits="userSpaceOnUse">
<stop stop-color="#26252B"/>
<stop offset="0.22" stop-color="#1D1C20"/>
<stop offset="0.64" stop-color="#111112"/>
<stop offset="1" stop-color="#0D0D0D"/>
</linearGradient>
<linearGradient id="paint88_linear_10_644" x1="151.054" y1="781.047" x2="201.271" y2="781.047" gradientUnits="userSpaceOnUse">
<stop stop-color="#26252B"/>
<stop offset="0.22" stop-color="#1D1C20"/>
<stop offset="0.64" stop-color="#111112"/>
<stop offset="1" stop-color="#0D0D0D"/>
</linearGradient>
<linearGradient id="paint89_linear_10_644" x1="125.946" y1="823.525" x2="176.163" y2="823.525" gradientUnits="userSpaceOnUse">
<stop stop-color="#26252B"/>
<stop offset="0.22" stop-color="#1D1C20"/>
<stop offset="0.64" stop-color="#111112"/>
<stop offset="1" stop-color="#0D0D0D"/>
</linearGradient>
<clipPath id="clip0_10_644">
<rect width="153" height="826" fill="white"/>
</clipPath>
</defs>
</svg>
