<svg width="64" height="65" viewBox="0 0 64 65" fill="none" xmlns="http://www.w3.org/2000/svg">
<g clip-path="url(#clip0_7_77)">
<path d="M48.2339 16.4205C49.9181 16.4205 51.2834 15.0339 51.2834 13.3233C51.2834 11.6128 49.9181 10.2262 48.2339 10.2262C46.5497 10.2262 45.1844 11.6128 45.1844 13.3233C45.1844 15.0339 46.5497 16.4205 48.2339 16.4205Z" fill="#F9BD5F"/>
<path d="M47.6845 13.3233C47.6845 12.0654 48.4256 10.9835 49.4861 10.4986C49.1046 10.3242 48.6795 10.2263 48.2339 10.2263C46.5498 10.2263 45.1844 11.6129 45.1844 13.3235C45.1844 15.034 46.5496 16.4206 48.2339 16.4206C48.6795 16.4206 49.1036 16.3231 49.4851 16.1487C48.4246 15.6636 47.6845 14.5813 47.6845 13.3233Z" fill="#F4AC4E"/>
<path d="M51.7637 29.1239L48.2339 15.3881L39.5662 29.026L44.1056 37.7197L51.7637 29.1239Z" fill="#F9BD5F"/>
<path d="M24.4629 29.0223L15.7978 15.3881L12.2614 29.1059L19.8636 37.7197L24.4629 29.0223Z" fill="#F9BD5F"/>
<path d="M32.0615 13.3234L19.8636 36.3904L3.59987 17.9627L9.69887 48.4239L13.736 49.7533H50.5834L54.4241 48.4239L60.5231 17.9627L44.1056 36.3904L32.0615 13.3234Z" fill="#FFE177"/>
<path d="M49.8401 34.163L59.4361 23.3921L60.5232 17.9626L46.47 33.7366C47.1439 35.0272 48.875 35.2462 49.8401 34.163Z" fill="#FFD15B"/>
<path d="M8.45025 23.4584L3.59987 17.9626L9.69887 48.4239L13.736 49.7534H17.486L13.4489 48.4239L8.45025 23.4584Z" fill="#FFD15B"/>
<path d="M25.0123 33.7457L33.9246 16.8916L32.0615 13.3234L21.2688 33.7334L21.6409 34.155C22.6005 35.2423 24.3319 35.0322 25.0123 33.7457Z" fill="#FFD15B"/>
<path d="M31.242 29.4412L28.2005 35.6193C28.0715 35.8813 28.0715 36.1897 28.2005 36.4516L31.242 42.6296C31.5796 43.3155 32.5434 43.3155 32.8811 42.6296L35.9226 36.4516C36.0516 36.1895 36.0516 35.8812 35.9226 35.6193L32.8811 29.4412C32.5434 28.7553 31.5796 28.7553 31.242 29.4412Z" fill="#FF8086"/>
<path d="M30.7005 36.4517C30.5715 36.1896 30.5715 35.8813 30.7005 35.6194L33.3115 30.3157L32.881 29.4413C32.5434 28.7554 31.5796 28.7554 31.2419 29.4413L28.2004 35.6194C28.0714 35.8814 28.0714 36.1898 28.2004 36.4517L31.2419 42.6297C31.5795 43.3156 32.5433 43.3156 32.881 42.6297L33.3115 41.7554L30.7005 36.4517Z" fill="#E5646E"/>
<path d="M21.0216 44.2944H18.7056C18.2224 44.2944 17.8306 43.8966 17.8306 43.4058V41.0536C17.8306 40.5628 18.2224 40.1649 18.7056 40.1649H21.0216C21.5049 40.1649 21.8966 40.5628 21.8966 41.0536V43.4058C21.8966 43.8966 21.5049 44.2944 21.0216 44.2944Z" fill="#8AC9FE"/>
<path d="M45.4172 44.2944H43.1012C42.618 44.2944 42.2262 43.8966 42.2262 43.4058V41.0536C42.2262 40.5628 42.618 40.1649 43.1012 40.1649H45.4172C45.9005 40.1649 46.2922 40.5628 46.2922 41.0536V43.4058C46.2922 43.8966 45.9005 44.2944 45.4172 44.2944Z" fill="#8AC9FE"/>
<path d="M44.2592 48.4315L44.262 48.4238H44.2574L44.2592 48.4315Z" fill="#606060"/>
<path d="M3.0495 19.4914C4.73369 19.4914 6.099 18.1048 6.099 16.3943C6.099 14.6838 4.73369 13.2971 3.0495 13.2971C1.36531 13.2971 0 14.6838 0 16.3943C0 18.1048 1.36531 19.4914 3.0495 19.4914Z" fill="#F9BD5F"/>
<path d="M2.5 16.3943C2.5 15.1363 3.24062 14.0541 4.30125 13.5693C3.91963 13.3949 3.49513 13.2972 3.0495 13.2972C1.36525 13.2972 0 14.6838 0 16.3943C0 18.1047 1.36525 19.4914 3.0495 19.4914C3.49513 19.4914 3.91963 19.3938 4.30125 19.2194C3.24062 18.7344 2.5 17.6522 2.5 16.3943Z" fill="#F4AC4E"/>
<path d="M60.9505 19.4914C62.6347 19.4914 64 18.1048 64 16.3943C64 14.6838 62.6347 13.2971 60.9505 13.2971C59.2663 13.2971 57.901 14.6838 57.901 16.3943C57.901 18.1048 59.2663 19.4914 60.9505 19.4914Z" fill="#F9BD5F"/>
<path d="M60.4011 16.3943C60.4011 15.1363 61.1414 14.054 62.202 13.5692C61.8204 13.3947 61.3961 13.2972 60.9506 13.2972C59.2664 13.2972 57.9011 14.6838 57.9011 16.3944C57.9011 18.1048 59.2664 19.4915 60.9506 19.4915C61.3962 19.4915 61.8205 19.394 62.202 19.2196C61.1414 18.7345 60.4011 17.6522 60.4011 16.3943Z" fill="#F4AC4E"/>
<path d="M32.0615 14.5199C33.7457 14.5199 35.111 13.1332 35.111 11.4227C35.111 9.7122 33.7457 8.32556 32.0615 8.32556C30.3773 8.32556 29.012 9.7122 29.012 11.4227C29.012 13.1332 30.3773 14.5199 32.0615 14.5199Z" fill="#F9BD5F"/>
<path d="M31.512 11.4227C31.512 10.1647 32.2521 9.08233 33.3128 8.59749C32.9313 8.42306 32.507 8.32556 32.0615 8.32556C30.3774 8.32556 29.012 9.71214 29.012 11.4227C29.012 13.1331 30.3773 14.5199 32.0615 14.5199C32.5071 14.5199 32.9313 14.4224 33.3128 14.2479C32.2521 13.763 31.512 12.6807 31.512 11.4227Z" fill="#F4AC4E"/>
<path d="M15.3249 16.3945C17.0091 16.3945 18.3744 15.0079 18.3744 13.2973C18.3744 11.5868 17.0091 10.2002 15.3249 10.2002C13.6407 10.2002 12.2754 11.5868 12.2754 13.2973C12.2754 15.0079 13.6407 16.3945 15.3249 16.3945Z" fill="#F9BD5F"/>
<path d="M14.7755 13.2973C14.7755 12.0394 15.5157 10.9571 16.5764 10.4723C16.1947 10.2978 15.7705 10.2003 15.3249 10.2003C13.6407 10.2003 12.2754 11.5869 12.2754 13.2975C12.2754 15.008 13.6406 16.3946 15.3249 16.3946C15.7705 16.3946 16.1947 16.2971 16.5764 16.1227C15.5157 15.6376 14.7755 14.5552 14.7755 13.2973Z" fill="#F4AC4E"/>
<path d="M54.4239 48.4147V55.7438C54.4239 56.2569 54.0141 56.6744 53.5076 56.6744H10.6154C10.1089 56.6744 9.69913 56.2569 9.69913 55.7438V48.4147H54.4239Z" fill="#F9BD5F"/>
<path d="M13.4491 55.7437V48.4146H9.69913V55.7437C9.69913 56.2568 10.1089 56.6742 10.6154 56.6742H14.3654C13.8589 56.6744 13.4491 56.2568 13.4491 55.7437Z" fill="#F4AC4E"/>
<path d="M9.69913 51.5521H54.4239V53.5463H9.69913V51.5521Z" fill="#FFE177"/>
<path d="M13.4491 53.5421V51.5487L9.69913 51.5481V53.5421L54.4239 53.5501V53.5495L13.4491 53.5421Z" fill="#FFD15B"/>
</g>
<defs>
<clipPath id="clip0_7_77">
<rect width="64" height="65" fill="white"/>
</clipPath>
</defs>
</svg>
