<svg width="43" height="43" viewBox="0 0 43 43" fill="none" xmlns="http://www.w3.org/2000/svg">
<path d="M32.3335 16.2592L32.9685 17.5291C33.8723 19.339 33.0012 21.5741 30.6612 22.2247C30.6316 22.2345 27.3905 23.1046 26.4061 20.1562L25.4574 17.3063L28.1572 14.6053L21.4951 4.61353L14.833 14.6053L17.5328 17.3063L16.5841 20.1562C15.4983 23.4092 11.0299 22.6434 9.97618 20.3494C9.56028 19.4462 9.5775 18.4188 10.0217 17.5291L10.6554 16.2604L0 12.4569L5.11439 32.0861L7.6345 34.6062H21.4951H35.3557L37.8758 32.0861L43 12.4581L32.3335 16.2592Z" fill="#FFE177"/>
<path d="M37.8758 32.0861L43 12.4581L32.3335 16.2592L32.9685 17.5291C33.8723 19.339 33.0012 21.5741 30.6612 22.2247C30.6317 22.2345 27.3905 23.1046 26.4061 20.1562L25.4574 17.3063L28.1572 14.6053L21.4951 4.61353V34.6062H35.3557L37.8758 32.0861Z" fill="#F9BD5F"/>
<path d="M21.4951 32.0862H5.11438V38.3864H21.4951H37.8758V32.0862H21.4951Z" fill="#F9BD5F"/>
<path d="M21.4951 32.0862H37.8758V38.3864H21.4951V32.0862Z" fill="#F4AC4E"/>
<path d="M15.19 32.0851L21.4893 25.7858L27.7886 32.0851L21.4893 38.3844L15.19 32.0851Z" fill="#F9BD5F"/>
<path d="M21.4951 25.7859V38.3864L27.7954 32.0862L21.4951 25.7859Z" fill="#F4AC4E"/>
</svg>
