<svg width="88" height="36" viewBox="0 0 88 36" fill="none" xmlns="http://www.w3.org/2000/svg">
<g opacity="0.4" clip-path="url(#clip0_12_5777)">
<path d="M42.3024 3.79666H45.2191C47.9534 3.79666 49.8902 5.3925 49.8902 7.6514C49.8902 9.91029 47.9534 11.5174 45.2191 11.5174H42.3024V3.79666ZM45.5836 9.53943C46.7685 9.53943 47.6116 8.75275 47.6116 7.6514C47.6116 6.55004 46.7685 5.7746 45.5836 5.7746H44.5127V9.53943H45.5836Z" fill="#151515"/>
<path d="M51.0067 3.79666H53.217V11.5174H51.0067V3.79666Z" fill="#151515"/>
<path d="M58.2072 6.99958H61.8757V10.2812C61.0668 11.1465 59.8705 11.6522 58.6401 11.6522C56.2931 11.6522 54.3221 9.82039 54.3221 7.6514C54.3221 5.48241 56.2931 3.6618 58.6401 3.6618C59.8705 3.6618 61.0668 4.16753 61.8757 5.02164L60.2465 6.42642C59.8591 5.93194 59.2667 5.63974 58.6401 5.63974C57.535 5.63974 56.6007 6.56128 56.6007 7.6514C56.6007 8.74151 57.535 9.67429 58.6401 9.67429C59.0275 9.67429 59.4034 9.56191 59.7338 9.35962V8.60665H58.2072V6.99958Z" fill="#151515"/>
<path d="M63.1062 3.79666H65.3164V11.5174H63.1062V3.79666Z" fill="#151515"/>
<path d="M68.609 5.74089H66.2962V3.79666H73.132V5.74089H70.8192V11.5174H68.609V5.74089Z" fill="#151515"/>
<path d="M78.5551 10.4834H75.8322L75.4334 11.5174H72.9384L75.9461 3.79666H78.4412L81.449 11.5174H78.9539L78.5551 10.4834ZM77.9285 8.87637L77.1994 6.99957L76.4588 8.87637H77.9285Z" fill="#151515"/>
<path d="M88 9.57314V11.5174H82.144V3.79666H84.3542V9.57314H88Z" fill="#151515"/>
<path d="M41.71 20.7197L42.9404 19.2699C43.738 19.888 44.6038 20.2139 45.5267 20.2139C46.1305 20.2139 46.4495 20.0117 46.4495 19.6745C46.4495 19.3036 46.1761 19.2475 45.0937 19.0002C43.3962 18.6181 42.086 18.1798 42.086 16.5727C42.086 14.9657 43.3164 14.0329 45.1735 14.0329C46.5293 14.0329 47.5888 14.3925 48.4547 15.078L47.3496 16.6177C46.6204 16.1007 45.8229 15.8422 45.1165 15.8422C44.581 15.8422 44.319 16.0558 44.319 16.348C44.319 16.7413 44.5924 16.8649 45.709 17.1009C47.5318 17.483 48.6712 17.9663 48.6712 19.4385C48.6712 21.0681 47.4065 22.0233 45.4469 22.0233C44.0342 22.0233 42.7012 21.585 41.71 20.7197Z" fill="#151515"/>
<path d="M51.8726 16.112V16.9773H55.5981V18.9215H51.8726V19.9442H55.9627V21.8884H49.6624V14.1677H55.9627V16.112H51.8726Z" fill="#151515"/>
<path d="M59.2895 16.112V16.9773H63.015V18.9215H59.2895V19.9442H63.3796V21.8884H57.0792V14.1677H63.3796V16.112H59.2895Z" fill="#151515"/>
<path d="M64.4961 14.1677H67.4127C70.1471 14.1677 72.0839 15.7636 72.0839 18.0225C72.0839 20.2814 70.1471 21.8884 67.4127 21.8884H64.4961V14.1677ZM67.7773 19.9105C68.9622 19.9105 69.8053 19.1238 69.8053 18.0225C69.8053 16.9211 68.9622 16.1457 67.7773 16.1457H66.7064V19.9105H67.7773Z" fill="#151515"/>
<path d="M41.71 31.0345L42.9404 29.5848C43.738 30.2029 44.6038 30.5288 45.5267 30.5288C46.1305 30.5288 46.4495 30.3265 46.4495 29.9894C46.4495 29.6185 46.1761 29.5623 45.0937 29.3151C43.3962 28.933 42.086 28.4947 42.086 26.8876C42.086 25.2805 43.3164 24.3478 45.1735 24.3478C46.5293 24.3478 47.5888 24.7074 48.4547 25.3929L47.3496 26.9326C46.6204 26.4156 45.8229 26.1571 45.1165 26.1571C44.581 26.1571 44.319 26.3707 44.319 26.6629C44.319 27.0562 44.5924 27.1798 45.709 27.4158C47.5318 27.7979 48.6712 28.2812 48.6712 29.7534C48.6712 31.3829 47.4065 32.3382 45.4469 32.3382C44.0342 32.3382 42.7012 31.8999 41.71 31.0345Z" fill="#151515"/>
<path d="M51.5536 26.4268H49.2408V24.4826H56.0767V26.4268H53.7639V32.2033H51.5536V26.4268Z" fill="#151515"/>
<path d="M56.9425 28.7756V24.4826H59.1528V28.6633C59.1528 29.6522 59.7794 30.3602 60.668 30.3602C61.5567 30.3602 62.1833 29.6522 62.1833 28.6633V24.4826H64.3936V28.7756C64.3936 30.866 62.8555 32.3382 60.668 32.3382C58.4806 32.3382 56.9425 30.866 56.9425 28.7756Z" fill="#151515"/>
<path d="M65.681 24.4826H68.5976C71.332 24.4826 73.2688 26.0785 73.2688 28.3374C73.2688 30.5962 71.332 32.2033 68.5976 32.2033H65.681V24.4826ZM68.9622 30.2254C70.1471 30.2254 70.9902 29.4387 70.9902 28.3374C70.9902 27.236 70.1471 26.4606 68.9622 26.4606H67.8913V30.2254H68.9622Z" fill="#151515"/>
<path d="M74.3853 24.4826H76.5955V32.2033H74.3853V24.4826Z" fill="#151515"/>
<path d="M77.7007 28.3374C77.7007 26.1684 79.6489 24.3478 81.9617 24.3478C84.2745 24.3478 86.2227 26.1684 86.2227 28.3374C86.2227 30.5063 84.2745 32.3382 81.9617 32.3382C79.6489 32.3382 77.7007 30.5063 77.7007 28.3374ZM83.9441 28.3374C83.9441 27.2472 83.0326 26.3257 81.9617 26.3257C80.8907 26.3257 79.9793 27.2472 79.9793 28.3374C79.9793 29.4275 80.8907 30.3602 81.9617 30.3602C83.0326 30.3602 83.9441 29.4387 83.9441 28.3374Z" fill="#151515"/>
<path d="M27.3604 8.20021C25.8774 8.20021 24.4096 8.47555 23.0387 9.01873C21.6696 9.56004 20.424 10.3542 19.3758 11.3563L18.9884 11.7272L18.9011 11.2008C18.4435 8.46243 16.9795 5.96941 14.773 4.16753C12.5646 2.36566 9.75626 1.37482 6.85293 1.37482H0V6.21478C0 9.30531 1.28362 12.2722 3.56983 14.4618C5.85793 16.6514 8.96254 17.882 12.2001 17.882H16.0509V29.4125C14.8641 29.9669 14.0419 31.1582 14.0419 32.5386C14.0419 34.451 15.6142 36.0019 17.5529 36.0019C19.4916 36.0019 21.0639 34.451 21.0639 32.5386C21.0639 31.1563 20.2417 29.9669 19.053 29.4125V23.001H23.7944C26.7965 23.001 29.6732 21.8604 31.7942 19.8318C33.9133 17.8033 35.1039 15.0537 35.1039 12.1898V8.20208H27.3623L27.3604 8.20021ZM15.768 15.0256H12.202C9.76385 15.0256 7.42448 14.0984 5.70033 12.4483C3.97428 10.7963 3.00207 8.55421 3.00207 6.21478V4.22934H6.85293C9.29104 4.22934 11.6304 5.1565 13.3565 6.80666C15.0825 8.45869 16.0547 10.7007 16.0547 13.0402V15.0256H15.7718H15.768ZM32.1018 11.3338V12.1879C32.1018 14.3007 31.2246 16.3274 29.6656 17.8183C28.1067 19.3093 25.9952 20.1465 23.7944 20.1465H19.053V19.0133C19.053 16.9005 19.9303 14.8739 21.4892 13.3829C23.0482 11.892 25.1597 11.0547 27.3604 11.0547H32.1018V11.3338Z" fill="#151515"/>
<path d="M16.1136 2.56608C16.2142 2.64849 16.3073 2.73465 16.406 2.81894C16.7839 2.78897 17.1656 2.77024 17.5529 2.77024C21.0981 2.77024 24.3489 4.03642 26.8668 6.13236C27.0263 6.12674 27.1858 6.12112 27.3472 6.12112H30.8126C27.6434 2.38065 22.8792 0 17.551 0C15.9598 0 14.4217 0.217274 12.9596 0.612487C14.0875 1.12383 15.1509 1.77752 16.1136 2.5642V2.56608Z" fill="#151515"/>
<path d="M33.2602 21.3209C32.4323 22.1132 31.5132 22.7875 30.5296 23.3382C28.9536 26.483 26.2363 28.9761 22.9153 30.2891C23.2134 30.9802 23.3786 31.7407 23.3786 32.5386C23.3786 32.7259 23.3691 32.9113 23.3501 33.093C29.1795 31.0439 33.5659 25.9923 34.595 19.8262C34.1925 20.3544 33.7463 20.8564 33.2602 21.3209Z" fill="#151515"/>
<path d="M3.08563 17.0391C3.08563 16.9623 3.08942 16.8874 3.09132 16.8106C2.75143 16.539 2.42103 16.2543 2.10392 15.9509C1.52288 15.3946 0.998797 14.7896 0.529783 14.149C0.366483 15.0893 0.277237 16.0539 0.277237 17.0391C0.277237 24.4433 5.06612 30.7405 11.7519 33.0912C11.7349 32.9076 11.7235 32.724 11.7235 32.5367C11.7235 31.7388 11.8887 30.9784 12.1868 30.2872C6.85863 28.18 3.08373 23.0385 3.08373 17.0391H3.08563Z" fill="#151515"/>
</g>
<defs>
<clipPath id="clip0_12_5777">
<rect width="88" height="36" fill="white"/>
</clipPath>
</defs>
</svg>
